# xmcd CD database file
#
# Track frame offsets:
#	150
#	73308
#	151404
#	163611
#	181224
#	193821
#	205779
#	216940
#	235131
#	244320
#	266949
#	275738
#	297020
#	312693
#
# Disc length: 4307 seconds
#
# Revision: 5
# Processed by: cddbd v1.5.1PL2 Copyright (c) Steve Scherf et al.
# Submitted via: CDex 1.51
#
DISCID=e410d10e
DTITLE=Fleetwood Mac - The Vaudeville Years Of Fleetwood Mac 1968 To 1970 (Disc-2)
DYEAR=1900
DGENRE=Blues
TTITLE0=Underway (Full Length Ver.)
TTITLE1=The Madge Sessions - 1 (Full Length Ver.)
TTITLE2=The Madge Sessions - 2 (Unissued Instrumental)
TTITLE3=(That's What) I Want To Know (Previously Unissued)
TTITLE4=Oh Well (Alternate Ver.)
TTITLE5=Love It Seems (Previously Unissued)
TTITLE6=Mighty Cold (Previously Unissued)
TTITLE7=Fast Talking Woman Blues (Unissued Instrumental)
TTITLE8=Tell Me From The Start (Previously Unissued)
TTITLE9=October Jam - 1 (Unissued Instrumental)
TTITLE10=October Jam - 2 (Unissued Instrumental)
TTITLE11=The Green Manalishi (with The Two Prong Crown) (Unissued Ver.)
TTITLE12=World In Harmony (Unissued Ver.)
TTITLE13=Farewell (Unissued Demo)
EXTD=
EXTT0=
EXTT1=
EXTT2=
EXTT3=
EXTT4=
EXTT5=
EXTT6=
EXTT7=
EXTT8=
EXTT9=
EXTT10=
EXTT11=
EXTT12=
EXTT13=
PLAYORDER=
